<svg xmlns="http://www.w3.org/2000/svg" xmlns:xlink="http://www.w3.org/1999/xlink" width="500" zoomAndPan="magnify" viewBox="0 0 375 374.999991" height="500" preserveAspectRatio="xMidYMid meet" version="1.2"><g id="e09dec354d"><path style=" stroke:none;fill-rule:nonzero;fill:#000000;fill-opacity:1;" d="M 187.5 0 C 83.945312 0 0 83.945312 0 187.5 C 0 291.054688 83.945312 375 187.5 375 C 291.054688 375 375 291.054688 375 187.5 C 375 83.945312 291.054688 0 187.5 0 Z M 187.5 360.796875 C 91.789062 360.796875 14.203125 283.210938 14.203125 187.5 C 14.203125 91.789062 91.789062 14.203125 187.5 14.203125 C 283.210938 14.203125 360.796875 91.789062 360.796875 187.5 C 360.796875 283.210938 283.210938 360.796875 187.5 360.796875 Z M 187.5 360.796875 "/><path style=" stroke:none;fill-rule:nonzero;fill:#000000;fill-opacity:1;" d="M 165.492188 279.40625 C 160.792969 279.859375 157.035156 280.375 153.261719 280.554688 C 131.867188 281.566406 116.03125 273.132812 106.425781 253.464844 C 103.367188 247.199219 99.449219 241.289062 95.371094 235.617188 C 92.921875 232.207031 89.488281 229.46875 86.320312 226.628906 L 86.28125 226.597656 C 84.320312 224.871094 85.1875 221.644531 87.761719 221.210938 C 90.785156 220.703125 93.601562 221.25 96.347656 221.949219 C 104.949219 224.140625 110.472656 230.238281 114.871094 237.53125 C 124.820312 254.027344 141.953125 260.90625 160.480469 255.992188 C 163.625 255.15625 165.011719 253.804688 165.699219 250.375 C 166.496094 246.371094 167.582031 242.429688 168.75 238.410156 C 168.921875 237.816406 169.03125 237.214844 169.078125 236.597656 C 169.128906 235.984375 169.113281 235.371094 169.039062 234.757812 C 168.964844 234.148438 168.828125 233.546875 168.628906 232.964844 C 168.433594 232.378906 168.179688 231.820312 167.867188 231.289062 C 167.558594 230.757812 167.195312 230.261719 166.785156 229.800781 C 166.371094 229.34375 165.917969 228.929688 165.421875 228.5625 C 164.925781 228.195312 164.398438 227.882812 163.839844 227.625 C 163.28125 227.363281 162.703125 227.164062 162.101562 227.023438 L 162 226.996094 C 142.773438 222.398438 126.167969 213.835938 115.46875 196.265625 C 109.746094 186.875 106.914062 176.527344 107.0625 165.746094 C 107.226562 153.515625 108.308594 141.257812 109.714844 129.09375 C 110.703125 120.53125 114.667969 112.945312 120.828125 106.789062 C 122.972656 104.640625 123.15625 102.84375 122.117188 100.0625 C 117.878906 88.683594 118.617188 77.28125 122.378906 65.878906 C 123.441406 62.660156 124.949219 62.199219 128.027344 63.167969 C 137.550781 66.167969 144.65625 72.363281 150.902344 79.789062 L 150.96875 79.863281 C 151.75 80.808594 152.65625 81.613281 153.683594 82.285156 C 154.710938 82.957031 155.8125 83.460938 156.992188 83.800781 C 158.167969 84.144531 159.371094 84.304688 160.597656 84.285156 C 161.824219 84.261719 163.019531 84.0625 164.1875 83.6875 C 183.953125 77.203125 213.941406 77.117188 232.585938 83.53125 C 233.757812 83.929688 234.960938 84.144531 236.195312 84.179688 C 237.433594 84.210938 238.648438 84.058594 239.839844 83.726562 C 241.027344 83.390625 242.144531 82.886719 243.183594 82.214844 C 244.21875 81.542969 245.136719 80.730469 245.929688 79.78125 L 245.988281 79.707031 C 252.242188 72.285156 259.382812 66.136719 268.898438 63.128906 C 272.09375 62.121094 273.453125 62.890625 274.464844 65.996094 C 278.179688 77.402344 278.8125 88.738281 274.792969 100.238281 C 274.230469 101.855469 274.253906 104.671875 275.257812 105.691406 C 283.792969 114.351562 287.53125 125.097656 288.476562 136.742188 C 289.394531 147.992188 290.386719 159.433594 289.339844 170.605469 C 286.625 199.65625 268.960938 216.578125 242.097656 224.988281 C 239.800781 225.710938 237.464844 226.3125 235.082031 226.875 C 234.460938 227.023438 233.863281 227.230469 233.285156 227.503906 C 232.710938 227.777344 232.167969 228.105469 231.664062 228.488281 C 231.15625 228.875 230.695312 229.308594 230.277344 229.792969 C 229.863281 230.273438 229.5 230.796875 229.195312 231.351562 C 228.886719 231.910156 228.640625 232.496094 228.457031 233.105469 C 228.273438 233.714844 228.15625 234.335938 228.101562 234.972656 C 228.050781 235.605469 228.0625 236.242188 228.140625 236.871094 C 228.222656 237.503906 228.367188 238.121094 228.574219 238.722656 C 232.234375 249.328125 231.675781 260.65625 231.617188 271.910156 C 231.605469 274.496094 231.597656 277.085938 231.589844 279.675781 C 231.589844 280.746094 231.535156 281.8125 231.425781 282.875 C 231.320312 283.9375 231.160156 284.992188 230.953125 286.042969 C 230.742188 287.089844 230.480469 288.125 230.167969 289.148438 C 229.855469 290.167969 229.492188 291.171875 229.082031 292.160156 C 228.671875 293.148438 228.214844 294.113281 227.710938 295.054688 C 227.203125 295.996094 226.652344 296.910156 226.058594 297.796875 C 225.464844 298.6875 224.828125 299.542969 224.148438 300.367188 C 223.46875 301.191406 222.75 301.984375 221.996094 302.738281 C 221.238281 303.492188 220.445312 304.210938 219.617188 304.886719 C 218.792969 305.5625 217.933594 306.199219 217.042969 306.792969 C 216.15625 307.386719 215.238281 307.933594 214.296875 308.4375 C 213.351562 308.941406 212.386719 309.394531 211.398438 309.804688 C 210.414062 310.210938 209.40625 310.570312 208.382812 310.882812 C 207.359375 311.191406 206.324219 311.449219 205.277344 311.660156 C 204.230469 311.867188 203.171875 312.023438 202.109375 312.128906 C 201.046875 312.230469 199.980469 312.285156 198.910156 312.285156 L 198.175781 312.285156 C 197.105469 312.285156 196.035156 312.230469 194.96875 312.125 C 193.90625 312.023438 192.847656 311.863281 191.796875 311.65625 C 190.75 311.449219 189.710938 311.1875 188.6875 310.875 C 187.664062 310.566406 186.65625 310.207031 185.667969 309.796875 C 184.679688 309.386719 183.710938 308.929688 182.769531 308.425781 C 181.824219 307.921875 180.90625 307.371094 180.015625 306.777344 C 179.128906 306.183594 178.269531 305.542969 177.441406 304.867188 C 176.613281 304.1875 175.820312 303.46875 175.066406 302.710938 C 174.308594 301.957031 173.589844 301.164062 172.910156 300.335938 C 172.230469 299.507812 171.59375 298.648438 171 297.757812 C 170.40625 296.871094 169.855469 295.953125 169.351562 295.007812 C 168.847656 294.066406 168.390625 293.097656 167.980469 292.109375 C 167.570312 291.121094 167.210938 290.113281 166.898438 289.089844 C 166.589844 288.066406 166.328125 287.027344 166.121094 285.976562 C 165.910156 284.929688 165.753906 283.871094 165.648438 282.804688 C 165.546875 281.742188 165.492188 280.671875 165.492188 279.601562 Z M 165.492188 279.40625 "/></g></svg>