<svg xmlns="http://www.w3.org/2000/svg" xmlns:xlink="http://www.w3.org/1999/xlink" width="500" zoomAndPan="magnify" viewBox="0 0 375 374.999991" height="500" preserveAspectRatio="xMidYMid meet" version="1.2"><defs><clipPath id="6ecbc4e91e"><path d="M 0 211 L 155 211 L 155 287.269531 L 0 287.269531 Z M 0 211 "/></clipPath></defs><g id="d4775040ec"><g clip-rule="nonzero" clip-path="url(#6ecbc4e91e)"><path style=" stroke:none;fill-rule:nonzero;fill:#00618a;fill-opacity:1;" d="M -0.917969 270.03125 L 11.496094 270.03125 L 11.496094 221.015625 L 30.707031 263.761719 C 32.976562 268.914062 36.078125 270.765625 42.164062 270.765625 C 48.25 270.765625 51.234375 268.933594 53.503906 263.761719 L 72.71875 221.015625 L 72.71875 270.050781 L 85.132812 270.050781 L 85.132812 221.09375 C 85.132812 216.320312 83.21875 214.011719 79.28125 212.816406 C 69.855469 209.871094 63.527344 212.417969 60.667969 218.789062 L 41.8125 260.976562 L 23.550781 218.769531 C 20.804688 212.402344 14.359375 209.855469 4.933594 212.800781 C 0.992188 213.992188 -0.917969 216.304688 -0.917969 221.078125 Z M 95.449219 230.121094 L 107.855469 230.121094 L 107.855469 257.136719 C 107.738281 258.605469 108.328125 262.050781 115.125 262.15625 C 118.59375 262.210938 141.898438 262.15625 142.113281 262.15625 L 142.113281 229.988281 L 154.550781 229.988281 C 154.605469 229.988281 154.539062 273.851562 154.539062 274.039062 C 154.605469 284.855469 141.121094 287.207031 134.90625 287.390625 L 95.71875 287.390625 L 95.71875 279.035156 L 134.976562 279.03125 C 142.964844 278.183594 142.023438 274.214844 142.023438 272.878906 L 142.023438 269.621094 L 115.644531 269.621094 C 103.371094 269.507812 95.558594 264.148438 95.460938 257.984375 C 95.449219 257.429688 95.722656 230.386719 95.453125 230.117188 Z M 95.449219 230.121094 "/></g><path style=" stroke:none;fill-rule:nonzero;fill:#e48e00;fill-opacity:1;" d="M 164.117188 270.03125 L 199.800781 270.03125 C 203.976562 270.03125 208.035156 269.15625 211.261719 267.644531 C 216.632812 265.175781 219.257812 261.832031 219.257812 257.453125 L 219.257812 248.382812 C 219.257812 244.796875 216.273438 241.457031 210.425781 239.226562 C 207.324219 238.03125 203.503906 237.394531 199.804688 237.394531 L 184.769531 237.394531 C 179.757812 237.394531 177.371094 235.882812 176.773438 232.539062 C 176.652344 232.144531 176.652344 231.804688 176.652344 231.425781 L 176.652344 225.777344 C 176.652344 225.457031 176.652344 225.136719 176.773438 224.738281 C 177.371094 222.191406 178.683594 221.472656 183.097656 221.058594 C 183.457031 221.058594 183.933594 220.976562 184.292969 220.976562 L 219.738281 220.976562 L 219.738281 212.703125 L 184.890625 212.703125 C 179.875 212.703125 177.25 213.019531 174.863281 213.734375 C 167.453125 216.046875 164.230469 219.726562 164.230469 226.09375 L 164.230469 233.335938 C 164.230469 238.910156 170.558594 243.6875 181.175781 244.800781 C 182.375 244.878906 183.566406 244.957031 184.757812 244.957031 L 197.648438 244.957031 C 198.125 244.957031 198.601562 244.957031 198.960938 245.039062 C 202.898438 245.359375 204.570312 246.074219 205.761719 247.503906 C 206.5 248.242188 206.71875 248.941406 206.71875 249.714844 L 206.71875 256.957031 C 206.71875 257.832031 206.125 258.949219 204.929688 259.902344 C 203.855469 260.859375 202.066406 261.492188 199.675781 261.652344 C 199.199219 261.652344 198.84375 261.734375 198.367188 261.734375 L 164.113281 261.734375 L 164.113281 270.011719 Z M 296.679688 255.625 C 296.679688 264.140625 303.003906 268.917969 315.773438 269.875 C 316.964844 269.964844 318.160156 270.019531 319.355469 270.03125 L 351.695312 270.03125 L 351.695312 261.753906 L 319.117188 261.753906 C 311.835938 261.753906 309.089844 259.921875 309.089844 255.542969 L 309.089844 212.71875 L 296.679688 212.71875 Z M 227.175781 256.054688 L 227.175781 226.542969 C 227.175781 219.046875 232.4375 214.5 242.839844 213.0625 C 243.949219 212.90625 245.066406 212.824219 246.191406 212.824219 L 269.75 212.824219 C 270.910156 212.824219 272.066406 212.90625 273.21875 213.0625 C 283.621094 214.5 288.882812 219.046875 288.882812 226.542969 L 288.882812 256.054688 C 288.882812 262.136719 286.648438 265.394531 281.496094 267.515625 L 293.722656 278.558594 L 279.3125 278.558594 L 269.421875 269.625 L 259.464844 270.257812 L 246.191406 270.257812 C 243.917969 270.257812 241.527344 269.9375 238.894531 269.21875 C 230.984375 267.066406 227.175781 262.917969 227.175781 256.054688 Z M 240.570312 255.320312 C 240.570312 255.71875 240.691406 256.117188 240.8125 256.597656 C 241.546875 260.027344 244.757812 261.941406 249.640625 261.941406 L 260.917969 261.941406 L 250.558594 252.585938 L 264.972656 252.585938 L 273.984375 260.746094 C 275.648438 259.859375 276.742188 258.5 277.113281 256.757812 C 277.230469 256.359375 277.230469 255.960938 277.230469 255.5625 L 277.230469 227.265625 C 277.230469 226.945312 277.230469 226.527344 277.113281 226.148438 C 276.375 222.957031 273.164062 221.121094 268.382812 221.121094 L 249.671875 221.121094 C 244.15625 221.121094 240.585938 223.515625 240.585938 227.265625 L 240.585938 255.339844 Z M 240.570312 255.320312 "/><path style=" stroke:none;fill-rule:nonzero;fill:#00618a;fill-opacity:1;" d="M 362.609375 198.984375 C 354.980469 198.777344 349.152344 199.488281 344.167969 201.589844 C 342.753906 202.1875 340.496094 202.203125 340.265625 203.976562 C 341.042969 204.792969 341.164062 206.011719 341.78125 207.015625 C 342.972656 208.941406 344.984375 211.523438 346.773438 212.875 C 348.730469 214.351562 350.746094 215.933594 352.847656 217.21875 C 356.582031 219.496094 360.75 220.796875 364.34375 223.078125 C 366.464844 224.421875 368.570312 226.113281 370.636719 227.632812 C 371.65625 228.386719 372.347656 229.550781 373.671875 230.019531 L 373.671875 229.804688 C 372.972656 228.914062 372.792969 227.691406 372.15625 226.765625 L 369.335938 223.945312 C 366.574219 220.265625 363.078125 217.070312 359.355469 214.394531 C 356.386719 212.261719 349.746094 209.386719 348.507812 205.929688 L 348.289062 205.710938 C 350.394531 205.472656 352.859375 204.710938 354.800781 204.191406 C 358.0625 203.320312 360.980469 203.542969 364.347656 202.675781 L 368.90625 201.371094 L 368.90625 200.503906 C 367.203125 198.753906 365.988281 196.441406 364.132812 194.859375 C 359.277344 190.71875 353.972656 186.585938 348.515625 183.136719 C 345.488281 181.222656 341.746094 179.984375 338.535156 178.359375 C 337.457031 177.816406 335.558594 177.53125 334.847656 176.625 C 333.160156 174.472656 332.246094 171.746094 330.945312 169.261719 C 328.222656 164.015625 325.546875 158.285156 323.132812 152.765625 C 321.488281 149.003906 320.410156 145.289062 318.359375 141.914062 C 308.511719 125.710938 297.90625 115.929688 281.484375 106.320312 C 277.988281 104.277344 273.78125 103.46875 269.332031 102.414062 L 262.171875 101.980469 C 260.714844 101.371094 259.199219 99.585938 257.832031 98.722656 C 252.390625 95.28125 238.433594 87.800781 234.402344 97.617188 C 231.859375 103.824219 238.207031 109.882812 240.476562 113.027344 C 242.070312 115.238281 244.113281 117.707031 245.25 120.191406 C 246 121.820312 246.128906 123.457031 246.769531 125.183594 C 248.34375 129.417969 249.71875 134.0625 251.757812 137.988281 C 252.789062 139.976562 253.925781 142.070312 255.230469 143.851562 C 256.027344 144.941406 257.398438 145.421875 257.613281 147.109375 C 256.277344 148.984375 256.199219 151.890625 255.445312 154.269531 C 252.054688 164.964844 253.332031 178.261719 258.265625 186.175781 C 259.777344 188.605469 263.339844 193.820312 268.242188 191.820312 C 272.53125 190.070312 271.554688 184.660156 272.800781 179.882812 C 273.074219 178.796875 272.90625 178.007812 273.453125 177.277344 L 273.453125 177.496094 L 277.355469 185.308594 C 280.246094 189.964844 285.375 194.832031 289.722656 198.117188 C 291.976562 199.820312 293.769531 202.765625 296.664062 203.761719 L 296.664062 203.542969 L 296.445312 203.542969 C 295.882812 202.660156 295 202.296875 294.277344 201.59375 C 292.578125 199.925781 290.691406 197.855469 289.285156 195.949219 C 285.332031 190.578125 281.839844 184.707031 278.65625 178.585938 C 277.136719 175.664062 275.816406 172.441406 274.535156 169.46875 C 274.042969 168.324219 274.050781 166.59375 273.019531 165.996094 C 271.617188 168.175781 269.546875 169.9375 268.460938 172.507812 C 266.726562 176.621094 266.5 181.632812 265.859375 186.835938 C 265.480469 186.96875 265.648438 186.875 265.425781 187.050781 C 262.40625 186.324219 261.34375 183.210938 260.21875 180.539062 C 257.378906 173.785156 256.851562 162.917969 259.351562 155.144531 C 259.996094 153.136719 262.921875 146.800781 261.738281 144.945312 C 261.171875 143.089844 259.308594 142 258.265625 140.601562 C 256.976562 138.851562 255.6875 136.546875 254.796875 134.523438 C 252.46875 129.261719 251.382812 123.351562 248.9375 118.027344 C 247.769531 115.484375 245.792969 112.914062 244.167969 110.667969 C 242.367188 108.164062 240.351562 106.316406 238.960938 103.304688 C 238.464844 102.230469 237.789062 100.507812 238.527344 99.398438 C 238.597656 99.074219 238.75 98.792969 238.988281 98.558594 C 239.222656 98.320312 239.503906 98.167969 239.828125 98.09375 C 241.085938 97.125 244.59375 98.417969 245.902344 98.964844 C 249.378906 100.410156 252.285156 101.789062 255.234375 103.738281 C 256.648438 104.660156 258.078125 106.492188 259.789062 106.996094 L 261.738281 106.996094 C 264.789062 107.699219 268.210938 107.21875 271.0625 108.082031 C 276.109375 109.617188 280.625 112.003906 284.730469 114.59375 C 297.238281 122.492188 307.457031 133.738281 314.453125 147.171875 C 315.578125 149.328125 316.0625 151.390625 317.054688 153.679688 C 319.054688 158.28125 321.574219 163.054688 323.5625 167.570312 C 325.550781 172.078125 327.480469 176.625 330.289062 180.375 C 331.765625 182.34375 337.464844 183.40625 340.050781 184.5 C 341.867188 185.265625 344.839844 186.066406 346.558594 187.101562 C 349.84375 189.085938 353.023438 191.445312 356.105469 193.617188 C 357.644531 194.703125 362.378906 197.082031 362.613281 199.042969 Z M 362.609375 198.984375 "/><path style=" stroke:none;fill-rule:evenodd;fill:#00618a;fill-opacity:1;" d="M 265.648438 116.292969 C 264.058594 116.261719 262.933594 116.464844 261.742188 116.726562 L 261.742188 116.941406 L 261.960938 116.941406 C 262.71875 118.503906 264.058594 119.507812 264.996094 120.851562 L 267.164062 125.40625 L 267.382812 125.191406 C 268.726562 124.242188 269.34375 122.726562 269.332031 120.414062 C 268.792969 119.847656 268.714844 119.136719 268.246094 118.460938 C 267.628906 117.558594 266.40625 117.046875 265.644531 116.289062 Z M 265.648438 116.292969 "/><path style=" stroke:none;fill-rule:evenodd;fill:#e48e00;fill-opacity:1;" d="M 357.53125 261.519531 C 357.53125 266.984375 361.847656 270.667969 366.679688 270.667969 C 371.507812 270.667969 375.824219 266.984375 375.824219 261.519531 C 375.824219 256.050781 371.507812 252.367188 366.679688 252.367188 C 361.847656 252.367188 357.53125 256.050781 357.53125 261.519531 Z M 373.773438 261.519531 C 373.773438 265.667969 370.605469 268.765625 366.675781 268.765625 C 362.699219 268.765625 359.574219 265.667969 359.574219 261.519531 C 359.574219 257.371094 362.699219 254.269531 366.675781 254.269531 C 370.601562 254.269531 373.773438 257.371094 373.773438 261.519531 Z M 369.140625 266.742188 L 371.1875 266.742188 L 368.1875 262.15625 C 369.796875 261.984375 371.015625 261.203125 371.015625 259.296875 C 371.015625 257.175781 369.671875 256.296875 367.089844 256.296875 L 363.015625 256.296875 L 363.015625 266.742188 L 364.773438 266.742188 L 364.773438 262.226562 L 366.40625 262.226562 L 369.136719 266.742188 Z M 364.773438 260.761719 L 364.773438 257.761719 L 366.796875 257.761719 C 367.84375 257.761719 369.113281 257.957031 369.113281 259.175781 C 369.113281 260.640625 367.96875 260.761719 366.648438 260.761719 Z M 364.773438 260.761719 "/></g></svg>