<svg xmlns="http://www.w3.org/2000/svg" xmlns:xlink="http://www.w3.org/1999/xlink" width="500" zoomAndPan="magnify" viewBox="0 0 375 374.999991" height="500" preserveAspectRatio="xMidYMid meet" version="1.2"><defs><clipPath id="b7ad300ecd"><path d="M 0.628906 90.683594 L 374.554688 90.683594 L 374.554688 284.183594 L 0.628906 284.183594 Z M 0.628906 90.683594 "/></clipPath><clipPath id="cab46e264d"><path d="M 0.980469 187.570312 C 0.980469 241.011719 84.53125 284.332031 187.59375 284.332031 C 290.652344 284.332031 374.203125 241.011719 374.203125 187.570312 C 374.203125 134.132812 290.652344 90.808594 187.59375 90.808594 C 84.53125 90.808594 0.980469 134.132812 0.980469 187.570312 "/></clipPath><clipPath id="7e8a858f8f"><path d="M 0.980469 187.570312 C 0.980469 241.011719 84.53125 284.332031 187.59375 284.332031 C 290.652344 284.332031 374.203125 241.011719 374.203125 187.570312 C 374.203125 134.132812 290.652344 90.808594 187.59375 90.808594 C 84.53125 90.808594 0.980469 134.132812 0.980469 187.570312 "/></clipPath><radialGradient gradientTransform="matrix(1.007203,0,0,0.992797,113.022455,124.825807)" id="abef7c1d92" gradientUnits="userSpaceOnUse" r="243.297914" cx="0" fx="0" cy="0" fy="0"><stop style="stop-color:#aeb2d5;stop-opacity:1;" offset="0"/><stop style="stop-color:#aeb2d5;stop-opacity:1;" offset="0.25"/><stop style="stop-color:#aeb2d5;stop-opacity:1;" offset="0.296875"/><stop style="stop-color:#adb1d4;stop-opacity:1;" offset="0.300781"/><stop style="stop-color:#acb0d4;stop-opacity:1;" offset="0.304688"/><stop style="stop-color:#acb0d3;stop-opacity:1;" offset="0.308594"/><stop style="stop-color:#abafd2;stop-opacity:1;" offset="0.3125"/><stop style="stop-color:#aaaed2;stop-opacity:1;" offset="0.316406"/><stop style="stop-color:#a9add1;stop-opacity:1;" offset="0.320312"/><stop style="stop-color:#a8acd1;stop-opacity:1;" offset="0.324219"/><stop style="stop-color:#a7abd0;stop-opacity:1;" offset="0.328125"/><stop style="stop-color:#a6aacf;stop-opacity:1;" offset="0.332031"/><stop style="stop-color:#a5a9cf;stop-opacity:1;" offset="0.335938"/><stop style="stop-color:#a4a9ce;stop-opacity:1;" offset="0.339844"/><stop style="stop-color:#a4a8cd;stop-opacity:1;" offset="0.34375"/><stop style="stop-color:#a3a7cd;stop-opacity:1;" offset="0.347656"/><stop style="stop-color:#a2a6cc;stop-opacity:1;" offset="0.351562"/><stop style="stop-color:#a1a5cb;stop-opacity:1;" offset="0.355469"/><stop style="stop-color:#a0a4cb;stop-opacity:1;" offset="0.359375"/><stop style="stop-color:#9fa3ca;stop-opacity:1;" offset="0.363281"/><stop style="stop-color:#9ea2c9;stop-opacity:1;" offset="0.367188"/><stop style="stop-color:#9da1c9;stop-opacity:1;" offset="0.371094"/><stop style="stop-color:#9ca1c8;stop-opacity:1;" offset="0.375"/><stop style="stop-color:#9ca0c7;stop-opacity:1;" offset="0.378906"/><stop style="stop-color:#9b9fc7;stop-opacity:1;" offset="0.382812"/><stop style="stop-color:#9a9ec6;stop-opacity:1;" offset="0.386719"/><stop style="stop-color:#999dc5;stop-opacity:1;" offset="0.390625"/><stop style="stop-color:#989cc5;stop-opacity:1;" offset="0.394531"/><stop style="stop-color:#979bc4;stop-opacity:1;" offset="0.398438"/><stop style="stop-color:#969ac3;stop-opacity:1;" offset="0.402344"/><stop style="stop-color:#9599c3;stop-opacity:1;" offset="0.40625"/><stop style="stop-color:#9499c2;stop-opacity:1;" offset="0.410156"/><stop style="stop-color:#9498c1;stop-opacity:1;" offset="0.414062"/><stop style="stop-color:#9397c1;stop-opacity:1;" offset="0.417969"/><stop style="stop-color:#9296c0;stop-opacity:1;" offset="0.421875"/><stop style="stop-color:#9195bf;stop-opacity:1;" offset="0.425781"/><stop style="stop-color:#9094bf;stop-opacity:1;" offset="0.429688"/><stop style="stop-color:#8f93be;stop-opacity:1;" offset="0.433594"/><stop style="stop-color:#8e92bd;stop-opacity:1;" offset="0.4375"/><stop style="stop-color:#8d91bd;stop-opacity:1;" offset="0.441406"/><stop style="stop-color:#8d91bc;stop-opacity:1;" offset="0.445312"/><stop style="stop-color:#8c90bb;stop-opacity:1;" offset="0.449219"/><stop style="stop-color:#8b8fbb;stop-opacity:1;" offset="0.453125"/><stop style="stop-color:#8a8eba;stop-opacity:1;" offset="0.457031"/><stop style="stop-color:#898db9;stop-opacity:1;" offset="0.460938"/><stop style="stop-color:#888cb9;stop-opacity:1;" offset="0.464844"/><stop style="stop-color:#878bb8;stop-opacity:1;" offset="0.46875"/><stop style="stop-color:#868ab7;stop-opacity:1;" offset="0.472656"/><stop style="stop-color:#858ab7;stop-opacity:1;" offset="0.476562"/><stop style="stop-color:#8589b6;stop-opacity:1;" offset="0.480469"/><stop style="stop-color:#8488b5;stop-opacity:1;" offset="0.484375"/><stop style="stop-color:#8387b5;stop-opacity:1;" offset="0.488281"/><stop style="stop-color:#8286b4;stop-opacity:1;" offset="0.492188"/><stop style="stop-color:#8185b3;stop-opacity:1;" offset="0.496094"/><stop style="stop-color:#8084b3;stop-opacity:1;" offset="0.5"/><stop style="stop-color:#7f83b2;stop-opacity:1;" offset="0.503906"/><stop style="stop-color:#7e82b1;stop-opacity:1;" offset="0.507812"/><stop style="stop-color:#7d82b1;stop-opacity:1;" offset="0.511719"/><stop style="stop-color:#7d81b0;stop-opacity:1;" offset="0.515625"/><stop style="stop-color:#7c80b0;stop-opacity:1;" offset="0.519531"/><stop style="stop-color:#7b7faf;stop-opacity:1;" offset="0.523438"/><stop style="stop-color:#7a7eae;stop-opacity:1;" offset="0.527344"/><stop style="stop-color:#797dae;stop-opacity:1;" offset="0.53125"/><stop style="stop-color:#787cad;stop-opacity:1;" offset="0.535156"/><stop style="stop-color:#777bac;stop-opacity:1;" offset="0.539062"/><stop style="stop-color:#767aac;stop-opacity:1;" offset="0.542969"/><stop style="stop-color:#767aab;stop-opacity:1;" offset="0.546875"/><stop style="stop-color:#7579aa;stop-opacity:1;" offset="0.550781"/><stop style="stop-color:#7478aa;stop-opacity:1;" offset="0.554688"/><stop style="stop-color:#7377a9;stop-opacity:1;" offset="0.558594"/><stop style="stop-color:#7276a8;stop-opacity:1;" offset="0.5625"/><stop style="stop-color:#7175a8;stop-opacity:1;" offset="0.566406"/><stop style="stop-color:#7074a7;stop-opacity:1;" offset="0.570312"/><stop style="stop-color:#6f73a6;stop-opacity:1;" offset="0.574219"/><stop style="stop-color:#6e73a6;stop-opacity:1;" offset="0.578125"/><stop style="stop-color:#6e72a5;stop-opacity:1;" offset="0.582031"/><stop style="stop-color:#6d71a4;stop-opacity:1;" offset="0.585938"/><stop style="stop-color:#6c70a4;stop-opacity:1;" offset="0.589844"/><stop style="stop-color:#6b6fa3;stop-opacity:1;" offset="0.59375"/><stop style="stop-color:#6a6ea2;stop-opacity:1;" offset="0.597656"/><stop style="stop-color:#696da2;stop-opacity:1;" offset="0.601562"/><stop style="stop-color:#686ca1;stop-opacity:1;" offset="0.605469"/><stop style="stop-color:#676ba0;stop-opacity:1;" offset="0.609375"/><stop style="stop-color:#666ba0;stop-opacity:1;" offset="0.613281"/><stop style="stop-color:#666a9f;stop-opacity:1;" offset="0.617188"/><stop style="stop-color:#65699e;stop-opacity:1;" offset="0.621094"/><stop style="stop-color:#64689e;stop-opacity:1;" offset="0.625"/><stop style="stop-color:#63679d;stop-opacity:1;" offset="0.628906"/><stop style="stop-color:#62669c;stop-opacity:1;" offset="0.632812"/><stop style="stop-color:#61659c;stop-opacity:1;" offset="0.636719"/><stop style="stop-color:#60649b;stop-opacity:1;" offset="0.640625"/><stop style="stop-color:#5f639a;stop-opacity:1;" offset="0.644531"/><stop style="stop-color:#5e639a;stop-opacity:1;" offset="0.648438"/><stop style="stop-color:#5e6299;stop-opacity:1;" offset="0.652344"/><stop style="stop-color:#5d6198;stop-opacity:1;" offset="0.65625"/><stop style="stop-color:#5c6098;stop-opacity:1;" offset="0.660156"/><stop style="stop-color:#5b5f97;stop-opacity:1;" offset="0.664062"/><stop style="stop-color:#5a5e96;stop-opacity:1;" offset="0.667969"/><stop style="stop-color:#595d96;stop-opacity:1;" offset="0.671875"/><stop style="stop-color:#585c95;stop-opacity:1;" offset="0.675781"/><stop style="stop-color:#575b94;stop-opacity:1;" offset="0.679688"/><stop style="stop-color:#575b94;stop-opacity:1;" offset="0.683594"/><stop style="stop-color:#565a93;stop-opacity:1;" offset="0.6875"/><stop style="stop-color:#555992;stop-opacity:1;" offset="0.691406"/><stop style="stop-color:#545892;stop-opacity:1;" offset="0.695312"/><stop style="stop-color:#535791;stop-opacity:1;" offset="0.699219"/><stop style="stop-color:#525691;stop-opacity:1;" offset="0.703125"/><stop style="stop-color:#515590;stop-opacity:1;" offset="0.707031"/><stop style="stop-color:#50548f;stop-opacity:1;" offset="0.710938"/><stop style="stop-color:#4f548f;stop-opacity:1;" offset="0.714844"/><stop style="stop-color:#4f538e;stop-opacity:1;" offset="0.71875"/><stop style="stop-color:#4e528d;stop-opacity:1;" offset="0.722656"/><stop style="stop-color:#4d518d;stop-opacity:1;" offset="0.726562"/><stop style="stop-color:#4c508c;stop-opacity:1;" offset="0.730469"/><stop style="stop-color:#4b4f8b;stop-opacity:1;" offset="0.734375"/><stop style="stop-color:#4a4e8b;stop-opacity:1;" offset="0.738281"/><stop style="stop-color:#494d8a;stop-opacity:1;" offset="0.742188"/><stop style="stop-color:#484c89;stop-opacity:1;" offset="0.746094"/><stop style="stop-color:#484c89;stop-opacity:1;" offset="1"/></radialGradient></defs><g id="255f83bed5"><g clip-rule="nonzero" clip-path="url(#b7ad300ecd)"><g clip-rule="nonzero" clip-path="url(#cab46e264d)"><g clip-rule="nonzero" clip-path="url(#7e8a858f8f)"><path style=" stroke:none;fill-rule:nonzero;fill:url(#radial0);" d="M 0.980469 90.808594 L 0.980469 284.183594 L 374.203125 284.183594 L 374.203125 90.808594 Z M 0.980469 90.808594 "/></g></g></g><path style=" stroke:none;fill-rule:nonzero;fill:#777bb3;fill-opacity:1;" d="M 187.59375 277.148438 C 286.628906 277.148438 366.914062 237.042969 366.914062 187.570312 C 366.914062 138.097656 286.628906 97.992188 187.59375 97.992188 C 88.554688 97.992188 8.269531 138.097656 8.269531 187.570312 C 8.269531 237.042969 88.554688 277.148438 187.59375 277.148438 "/><path style=" stroke:none;fill-rule:nonzero;fill:#000000;fill-opacity:1;" d="M 102.363281 198.675781 C 110.507812 198.675781 116.585938 197.195312 120.433594 194.277344 C 124.238281 191.390625 126.867188 186.386719 128.246094 179.40625 C 129.527344 172.882812 129.039062 168.324219 126.789062 165.867188 C 124.492188 163.355469 119.519531 162.082031 112.015625 162.082031 L 99 162.082031 L 91.785156 198.675781 Z M 59.800781 243.75 C 59.199219 243.75 58.625 243.484375 58.238281 243.023438 C 57.835938 242.539062 57.695312 241.992188 57.816406 241.375 L 76.933594 144.40625 C 76.980469 144.179688 77.0625 143.964844 77.183594 143.765625 C 77.304688 143.566406 77.453125 143.394531 77.636719 143.246094 C 77.816406 143.101562 78.015625 142.988281 78.238281 142.910156 C 78.460938 142.832031 78.6875 142.792969 78.921875 142.792969 L 120.132812 142.792969 C 133.082031 142.792969 142.722656 146.25 148.78125 153.09375 C 154.875 159.96875 156.753906 169.574219 154.371094 181.648438 C 153.402344 186.570312 151.734375 191.136719 149.417969 195.230469 C 147.097656 199.324219 144.03125 203.113281 140.300781 206.492188 C 135.835938 210.613281 130.78125 213.597656 125.292969 215.355469 C 119.890625 217.089844 112.953125 217.972656 104.671875 217.972656 L 87.984375 217.972656 L 83.222656 242.136719 C 83.175781 242.363281 83.09375 242.578125 82.972656 242.777344 C 82.855469 242.976562 82.703125 243.148438 82.523438 243.296875 C 82.339844 243.445312 82.140625 243.554688 81.917969 243.632812 C 81.695312 243.714844 81.46875 243.753906 81.234375 243.753906 L 59.796875 243.753906 Z M 59.800781 243.75 "/><path style=" stroke:none;fill-rule:nonzero;fill:#ffffff;fill-opacity:1;" d="M 100.671875 164.078125 L 112.015625 164.078125 C 121.074219 164.078125 124.21875 166.039062 125.289062 167.207031 C 127.0625 169.144531 127.398438 173.230469 126.257812 179.027344 C 124.976562 185.511719 122.601562 190.113281 119.199219 192.695312 C 115.714844 195.339844 110.050781 196.679688 102.367188 196.679688 L 94.246094 196.679688 L 100.675781 164.078125 Z M 120.128906 140.792969 L 78.921875 140.792969 C 78.453125 140.792969 77.996094 140.871094 77.554688 141.027344 C 77.113281 141.183594 76.710938 141.410156 76.347656 141.703125 C 75.984375 142 75.683594 142.347656 75.445312 142.742188 C 75.203125 143.140625 75.039062 143.570312 74.949219 144.023438 L 55.828125 240.996094 C 55.773438 241.285156 55.746094 241.578125 55.757812 241.871094 C 55.765625 242.167969 55.804688 242.457031 55.878906 242.742188 C 55.953125 243.027344 56.058594 243.300781 56.191406 243.5625 C 56.328125 243.828125 56.488281 244.070312 56.679688 244.296875 C 56.871094 244.523438 57.082031 244.730469 57.316406 244.910156 C 57.554688 245.089844 57.808594 245.242188 58.078125 245.371094 C 58.347656 245.496094 58.628906 245.589844 58.917969 245.652344 C 59.210938 245.71875 59.503906 245.75 59.804688 245.75 L 81.234375 245.75 C 81.703125 245.75 82.160156 245.671875 82.601562 245.515625 C 83.042969 245.359375 83.449219 245.132812 83.808594 244.839844 C 84.171875 244.542969 84.472656 244.199219 84.714844 243.800781 C 84.953125 243.402344 85.121094 242.976562 85.210938 242.519531 L 89.65625 219.96875 L 104.675781 219.96875 C 113.167969 219.96875 120.316406 219.058594 125.921875 217.257812 C 131.6875 215.410156 136.992188 212.28125 141.683594 207.953125 C 145.566406 204.433594 148.773438 200.480469 151.1875 196.207031 C 153.605469 191.933594 155.351562 187.164062 156.363281 182.035156 C 158.871094 169.324219 156.835938 159.148438 150.308594 151.785156 C 143.847656 144.496094 133.695312 140.800781 120.132812 140.800781 M 89.335938 200.675781 L 102.371094 200.675781 C 111.007812 200.675781 117.445312 199.074219 121.671875 195.863281 C 125.902344 192.652344 128.753906 187.296875 130.238281 179.792969 C 131.65625 172.585938 131.007812 167.5 128.300781 164.535156 C 125.589844 161.574219 120.160156 160.09375 112.019531 160.09375 L 97.335938 160.09375 L 89.335938 200.675781 M 120.136719 144.789062 C 132.53125 144.789062 141.574219 147.996094 147.261719 154.410156 C 152.945312 160.824219 154.65625 169.777344 152.386719 181.273438 C 151.453125 186.007812 149.875 190.335938 147.652344 194.257812 C 145.429688 198.179688 142.523438 201.773438 138.929688 205.027344 C 134.652344 208.972656 129.898438 211.785156 124.667969 213.460938 C 119.4375 215.140625 112.773438 215.976562 104.675781 215.976562 L 86.320312 215.976562 L 81.238281 241.757812 L 59.808594 241.757812 L 78.929688 144.796875 L 120.136719 144.796875 "/><path style=" stroke:none;fill-rule:nonzero;fill:#000000;fill-opacity:1;" d="M 203.507812 217.96875 C 202.902344 217.96875 202.328125 217.703125 201.945312 217.242188 C 201.5625 216.78125 201.402344 216.175781 201.519531 215.59375 L 209.976562 172.6875 C 210.78125 168.605469 210.582031 165.675781 209.417969 164.441406 C 208.707031 163.683594 206.566406 162.414062 200.234375 162.414062 L 184.914062 162.414062 L 174.277344 216.351562 C 174.234375 216.578125 174.152344 216.792969 174.03125 216.992188 C 173.910156 217.191406 173.761719 217.363281 173.578125 217.511719 C 173.398438 217.660156 173.195312 217.773438 172.976562 217.851562 C 172.753906 217.929688 172.527344 217.96875 172.289062 217.96875 L 151.03125 217.96875 C 150.726562 217.96875 150.4375 217.902344 150.164062 217.777344 C 149.890625 217.648438 149.660156 217.472656 149.46875 217.242188 C 149.273438 217.011719 149.140625 216.753906 149.066406 216.464844 C 148.992188 216.175781 148.984375 215.882812 149.042969 215.589844 L 168.160156 118.625 C 168.207031 118.394531 168.289062 118.183594 168.410156 117.984375 C 168.53125 117.785156 168.679688 117.613281 168.863281 117.464844 C 169.042969 117.316406 169.246094 117.203125 169.464844 117.125 C 169.6875 117.046875 169.914062 117.007812 170.148438 117.007812 L 191.410156 117.007812 C 191.714844 117.007812 192 117.070312 192.273438 117.199219 C 192.546875 117.328125 192.78125 117.503906 192.972656 117.734375 C 193.164062 117.964844 193.300781 118.222656 193.375 118.511719 C 193.449219 118.800781 193.457031 119.09375 193.398438 119.386719 L 188.785156 142.789062 L 205.269531 142.789062 C 217.824219 142.789062 226.339844 144.972656 231.300781 149.460938 C 236.363281 154.039062 237.933594 161.363281 235.992188 171.230469 L 227.09375 216.355469 C 227.050781 216.582031 226.96875 216.792969 226.847656 216.992188 C 226.726562 217.191406 226.574219 217.367188 226.394531 217.511719 C 226.214844 217.660156 226.011719 217.773438 225.792969 217.851562 C 225.570312 217.929688 225.339844 217.96875 225.105469 217.96875 Z M 203.507812 217.96875 "/><path style=" stroke:none;fill-rule:nonzero;fill:#ffffff;fill-opacity:1;" d="M 191.414062 115.011719 L 170.152344 115.011719 C 169.679688 115.011719 169.226562 115.089844 168.78125 115.246094 C 168.339844 115.402344 167.9375 115.628906 167.574219 115.925781 C 167.210938 116.21875 166.910156 116.566406 166.671875 116.964844 C 166.429688 117.363281 166.265625 117.789062 166.175781 118.242188 L 147.054688 215.210938 C 147 215.5 146.972656 215.792969 146.984375 216.085938 C 146.992188 216.378906 147.03125 216.667969 147.105469 216.953125 C 147.179688 217.238281 147.285156 217.515625 147.417969 217.777344 C 147.554688 218.039062 147.714844 218.285156 147.90625 218.511719 C 148.097656 218.738281 148.308594 218.941406 148.542969 219.121094 C 148.78125 219.304688 149.03125 219.457031 149.304688 219.582031 C 149.574219 219.707031 149.855469 219.804688 150.144531 219.867188 C 150.4375 219.929688 150.730469 219.964844 151.03125 219.964844 L 172.292969 219.964844 C 172.761719 219.964844 173.21875 219.886719 173.660156 219.730469 C 174.101562 219.574219 174.503906 219.347656 174.867188 219.050781 C 175.230469 218.757812 175.53125 218.410156 175.773438 218.011719 C 176.011719 217.613281 176.175781 217.1875 176.265625 216.734375 L 186.582031 164.410156 L 200.238281 164.410156 C 206.558594 164.410156 207.882812 165.742188 207.9375 165.796875 C 208.320312 166.203125 208.824219 168.085938 207.992188 172.304688 L 199.535156 215.210938 C 199.476562 215.5 199.453125 215.792969 199.460938 216.085938 C 199.46875 216.378906 199.511719 216.667969 199.585938 216.953125 C 199.660156 217.238281 199.761719 217.515625 199.898438 217.777344 C 200.03125 218.039062 200.195312 218.285156 200.386719 218.511719 C 200.574219 218.738281 200.789062 218.941406 201.023438 219.121094 C 201.257812 219.304688 201.511719 219.457031 201.78125 219.582031 C 202.054688 219.707031 202.332031 219.804688 202.625 219.867188 C 202.917969 219.929688 203.210938 219.964844 203.511719 219.964844 L 225.109375 219.964844 C 225.578125 219.964844 226.035156 219.886719 226.476562 219.730469 C 226.917969 219.574219 227.320312 219.347656 227.683594 219.050781 C 228.046875 218.757812 228.347656 218.410156 228.589844 218.011719 C 228.828125 217.613281 228.996094 217.1875 229.085938 216.734375 L 237.980469 171.609375 C 240.066406 161.019531 238.28125 153.070312 232.675781 147.992188 C 227.324219 143.148438 218.359375 140.792969 205.273438 140.792969 L 191.242188 140.792969 L 195.390625 119.765625 C 195.445312 119.476562 195.472656 119.183594 195.460938 118.890625 C 195.453125 118.597656 195.414062 118.304688 195.339844 118.019531 C 195.265625 117.734375 195.160156 117.460938 195.027344 117.199219 C 194.890625 116.9375 194.730469 116.691406 194.539062 116.464844 C 194.347656 116.238281 194.136719 116.035156 193.902344 115.851562 C 193.664062 115.671875 193.410156 115.519531 193.140625 115.394531 C 192.871094 115.269531 192.589844 115.171875 192.300781 115.109375 C 192.007812 115.042969 191.710938 115.011719 191.414062 115.011719 M 191.414062 119.003906 L 186.332031 144.785156 L 205.273438 144.785156 C 217.191406 144.785156 225.410156 146.835938 229.933594 150.929688 C 234.460938 155.027344 235.8125 161.667969 234.007812 170.847656 L 225.109375 215.972656 L 203.511719 215.972656 L 211.96875 173.066406 C 212.933594 168.1875 212.578125 164.859375 210.90625 163.082031 C 209.234375 161.308594 205.679688 160.417969 200.238281 160.417969 L 183.242188 160.417969 L 172.292969 215.972656 L 151.03125 215.972656 L 170.152344 119.003906 L 191.414062 119.003906 "/><path style=" stroke:none;fill-rule:nonzero;fill:#000000;fill-opacity:1;" d="M 269.632812 198.675781 C 277.777344 198.675781 283.855469 197.195312 287.703125 194.277344 C 291.507812 191.390625 294.136719 186.386719 295.511719 179.40625 C 296.796875 172.882812 296.308594 168.324219 294.058594 165.867188 C 291.757812 163.355469 286.789062 162.082031 279.28125 162.082031 L 266.269531 162.082031 L 259.054688 198.675781 Z M 227.070312 243.75 C 226.464844 243.75 225.890625 243.484375 225.507812 243.023438 C 225.101562 242.539062 224.960938 241.988281 225.082031 241.371094 L 244.203125 144.40625 C 244.246094 144.175781 244.328125 143.964844 244.449219 143.765625 C 244.570312 143.566406 244.71875 143.390625 244.902344 143.246094 C 245.082031 143.097656 245.285156 142.984375 245.503906 142.90625 C 245.726562 142.828125 245.953125 142.789062 246.191406 142.789062 L 287.398438 142.789062 C 300.351562 142.789062 309.988281 146.25 316.046875 153.09375 C 322.140625 159.964844 324.019531 169.574219 321.640625 181.648438 C 320.667969 186.566406 319.003906 191.136719 316.683594 195.226562 C 314.363281 199.320312 311.292969 203.109375 307.566406 206.492188 C 303.097656 210.609375 298.046875 213.597656 292.554688 215.355469 C 287.15625 217.089844 280.21875 217.96875 271.9375 217.96875 L 255.238281 217.96875 L 250.476562 242.136719 C 250.429688 242.363281 250.347656 242.574219 250.230469 242.773438 C 250.109375 242.972656 249.957031 243.148438 249.777344 243.292969 C 249.59375 243.441406 249.394531 243.554688 249.171875 243.632812 C 248.949219 243.710938 248.722656 243.75 248.488281 243.75 L 227.058594 243.75 Z M 227.070312 243.75 "/><path style=" stroke:none;fill-rule:nonzero;fill:#ffffff;fill-opacity:1;" d="M 267.9375 164.078125 L 279.285156 164.078125 C 288.339844 164.078125 291.488281 166.039062 292.558594 167.207031 C 294.332031 169.144531 294.667969 173.230469 293.527344 179.027344 C 292.246094 185.511719 289.871094 190.113281 286.46875 192.695312 C 282.984375 195.339844 277.320312 196.679688 269.632812 196.679688 L 261.511719 196.679688 L 267.941406 164.078125 Z M 287.398438 140.792969 L 246.1875 140.792969 C 245.71875 140.792969 245.261719 140.871094 244.820312 141.027344 C 244.378906 141.183594 243.976562 141.410156 243.613281 141.703125 C 243.25 142 242.949219 142.347656 242.710938 142.742188 C 242.46875 143.140625 242.304688 143.570312 242.214844 144.023438 L 223.09375 240.996094 C 223.035156 241.285156 223.011719 241.578125 223.019531 241.871094 C 223.027344 242.167969 223.070312 242.457031 223.144531 242.742188 C 223.214844 243.027344 223.320312 243.300781 223.457031 243.5625 C 223.589844 243.828125 223.753906 244.070312 223.941406 244.296875 C 224.132812 244.523438 224.347656 244.730469 224.582031 244.910156 C 224.816406 245.089844 225.070312 245.242188 225.339844 245.371094 C 225.609375 245.496094 225.890625 245.589844 226.183594 245.652344 C 226.472656 245.71875 226.769531 245.75 227.066406 245.75 L 248.496094 245.75 C 248.96875 245.75 249.421875 245.671875 249.867188 245.515625 C 250.308594 245.359375 250.710938 245.132812 251.074219 244.839844 C 251.4375 244.542969 251.738281 244.199219 251.976562 243.800781 C 252.21875 243.402344 252.382812 242.976562 252.472656 242.519531 L 256.917969 219.96875 L 271.9375 219.96875 C 280.429688 219.96875 287.578125 219.058594 293.183594 217.257812 C 298.949219 215.410156 304.253906 212.28125 308.949219 207.953125 C 312.832031 204.433594 316.027344 200.480469 318.449219 196.207031 C 320.875 191.933594 322.617188 187.164062 323.625 182.035156 C 326.132812 169.324219 324.097656 159.144531 317.570312 151.785156 C 311.109375 144.496094 300.960938 140.800781 287.398438 140.800781 M 256.597656 200.675781 L 269.632812 200.675781 C 278.273438 200.675781 284.707031 199.074219 288.9375 195.863281 C 293.164062 192.652344 296.019531 187.296875 297.5 179.792969 C 298.917969 172.585938 298.273438 167.5 295.5625 164.535156 C 292.851562 161.574219 287.421875 160.09375 279.28125 160.09375 L 264.601562 160.09375 L 256.597656 200.675781 M 287.398438 144.789062 C 299.796875 144.789062 308.839844 147.996094 314.523438 154.410156 C 320.207031 160.824219 321.917969 169.777344 319.652344 181.273438 C 318.71875 186.007812 317.136719 190.335938 314.914062 194.257812 C 312.691406 198.179688 309.785156 201.773438 306.195312 205.027344 C 301.914062 208.972656 297.160156 211.785156 291.929688 213.460938 C 286.699219 215.140625 280.039062 215.976562 271.9375 215.976562 L 253.582031 215.976562 L 248.5 241.757812 L 227.070312 241.757812 L 246.191406 144.789062 L 287.398438 144.789062 "/></g></svg>